<svg width="162" height="56" viewBox="0 0 162 56" fill="none" xmlns="http://www.w3.org/2000/svg">
<path d="M55.27 23.196C56.243 24.186 56.243 25.79 55.27 26.779L45.083 37.141C44.9302 37.2978 44.7476 37.4224 44.5458 37.5075C44.3441 37.5926 44.1274 37.6364 43.9085 37.6364C43.6896 37.6364 43.4729 37.5926 43.2712 37.5075C43.0694 37.4224 42.8868 37.2978 42.734 37.141L30.85 25.052C30.383 24.577 30.12 23.932 30.12 23.26V1.693C30.12 0.188003 31.909 -0.565997 32.955 0.499003L55.269 23.197L55.27 23.196ZM10.301 36.504C10.5302 36.7391 10.8041 36.9259 11.1066 37.0535C11.4092 37.1811 11.7342 37.2468 12.0625 37.2468C12.3908 37.2468 12.7158 37.1811 13.0184 37.0535C13.3209 36.9259 13.5948 36.7391 13.824 36.504L25.114 25.019C25.581 24.544 25.843 23.899 25.843 23.227V1.713C25.843 0.208003 24.054 -0.545997 23.008 0.518003L0.730002 23.183C-0.242998 24.173 -0.242998 25.777 0.730002 26.767L10.301 36.504Z" fill="#3C52D9"/>
<path d="M78.402 42V14.3636H89.4673C91.5005 14.3636 93.1963 14.665 94.5547 15.2678C95.9131 15.8705 96.9342 16.7071 97.6179 17.7777C98.3016 18.8393 98.6435 20.0627 98.6435 21.4482C98.6435 22.5277 98.4276 23.4768 97.9957 24.2955C97.5639 25.1051 96.9702 25.7708 96.2145 26.2926C95.4678 26.8054 94.6132 27.1697 93.6506 27.3857V27.6555C94.7031 27.7005 95.6882 27.9974 96.6058 28.5462C97.5324 29.0949 98.2836 29.8641 98.8594 30.8537C99.4351 31.8343 99.723 33.0038 99.723 34.3622C99.723 35.8286 99.3587 37.1375 98.63 38.2891C97.9103 39.4316 96.8442 40.3357 95.4318 41.0014C94.0194 41.6671 92.2786 42 90.2095 42H78.402ZM84.245 37.223H89.0085C90.6368 37.223 91.8243 36.9126 92.571 36.2919C93.3177 35.6622 93.6911 34.8255 93.6911 33.782C93.6911 33.0173 93.5066 32.3426 93.1378 31.7578C92.7689 31.1731 92.2427 30.7143 91.5589 30.3814C90.8842 30.0485 90.0791 29.8821 89.1435 29.8821H84.245V37.223ZM84.245 25.9283H88.5767C89.3774 25.9283 90.0881 25.7888 90.7088 25.5099C91.3385 25.2221 91.8333 24.8172 92.1932 24.2955C92.562 23.7737 92.7464 23.1484 92.7464 22.4197C92.7464 21.4212 92.3911 20.616 91.6804 20.0043C90.9787 19.3925 89.9801 19.0866 88.6847 19.0866H84.245V25.9283ZM103.525 42V14.3636H109.368V25.7663H121.23V14.3636H127.059V42H121.23V30.5838H109.368V42H103.525ZM130.824 19.1811V14.3636H153.521V19.1811H145.061V42H139.285V19.1811H130.824Z" fill="#EAEDFF"/>
<path d="M25.2204 30.1913L16.1913 39.2204C14.9811 40.4306 14.9811 42.3928 16.1913 43.603L25.3271 52.7388C26.5374 53.9491 28.4996 53.9491 29.7098 52.7388L38.7388 43.7098C39.9491 42.4996 39.9491 40.5374 38.7388 39.3271L29.603 30.1913C28.3928 28.9811 26.4306 28.9811 25.2204 30.1913Z" fill="#2EF2FF"/>
</svg>
