<svg width="173" height="70" viewBox="0 0 173 70" fill="none" xmlns="http://www.w3.org/2000/svg">
<g filter="url(#filter0_d_6_98)">
<path d="M91.4017 47.9996V20.3633H102.467C104.5 20.3633 106.196 20.6647 107.554 21.2674C108.913 21.8702 109.934 22.7068 110.618 23.7773C111.301 24.8389 111.643 26.0624 111.643 27.4478C111.643 28.5273 111.427 29.4764 110.995 30.2951C110.564 31.1048 109.97 31.7705 109.214 32.2923C108.468 32.805 107.613 33.1694 106.65 33.3853V33.6552C107.703 33.7002 108.688 33.997 109.606 34.5458C110.532 35.0946 111.283 35.8638 111.859 36.8533C112.435 37.8339 112.723 39.0034 112.723 40.3619C112.723 41.8282 112.358 43.1372 111.63 44.2887C110.91 45.4312 109.844 46.3353 108.432 47.0011C107.019 47.6668 105.278 47.9996 103.209 47.9996H91.4017ZM97.2448 43.2227H102.008C103.637 43.2227 104.824 42.9123 105.571 42.2916C106.317 41.6618 106.691 40.8252 106.691 39.7816C106.691 39.0169 106.506 38.3422 106.138 37.7575C105.769 37.1727 105.242 36.7139 104.559 36.381C103.884 36.0482 103.079 35.8818 102.143 35.8818H97.2448V43.2227ZM97.2448 31.9279H101.576C102.377 31.9279 103.088 31.7885 103.709 31.5096C104.338 31.2217 104.833 30.8169 105.193 30.2951C105.562 29.7733 105.746 29.1481 105.746 28.4194C105.746 27.4208 105.391 26.6157 104.68 26.0039C103.978 25.3922 102.98 25.0863 101.684 25.0863H97.2448V31.9279ZM116.525 47.9996V20.3633H122.368V31.766H134.229V20.3633H140.059V47.9996H134.229V36.5835H122.368V47.9996H116.525ZM144.876 47.9996V20.3633H150.719V32.5487H151.084L161.029 20.3633H168.033L157.777 32.7376L168.154 47.9996H161.164L153.594 36.6374L150.719 40.146V47.9996H144.876Z" fill="#EAEDFF"/>
</g>
<g filter="url(#filter1_d_6_98)">
<path d="M22.8 58.5054V53.8194H24.6709C25.5061 53.8194 25.923 54.1942 25.923 54.9433C25.923 55.5536 25.5149 56.0047 24.6988 56.2968L26.2052 58.5054H25.4565L24.0609 56.3985V56.0018C24.8988 55.8602 25.3184 55.5158 25.3184 54.9702C25.3184 54.5372 25.0851 54.3207 24.6193 54.3207H23.3679V58.5054H22.8Z" fill="#2EF2FF"/>
<path d="M29.671 53.8186V54.3105H27.3703V55.8834H29.5643V56.3753H27.3703V58.0136H29.7166V58.5054H26.8024V53.8194L29.671 53.8186Z" fill="#2EF2FF"/>
<path d="M30.7204 58.5054H30.1315L31.9936 53.8194H32.622L34.4936 58.5054H33.8645L33.2966 57.0306H31.846L32.0024 56.5395H33.1062L32.2874 54.4158L30.7204 58.5054Z" fill="#2EF2FF"/>
<path d="M35.6593 53.8186V58.0128H37.954V58.5047H35.0914V53.8186H35.6593Z" fill="#2EF2FF"/>
<path d="M43.0309 53.8186V54.3105H40.7301V55.8834H42.9234V56.3753H40.7301V58.0136H43.0771V58.5054H40.1629V53.8194L43.0309 53.8186Z" fill="#2EF2FF"/>
<path d="M43.8742 58.3412V57.784C44.3346 57.9591 44.8318 58.0455 45.365 58.0455C46.1192 58.0455 46.4974 57.7506 46.4974 57.1614C46.4974 56.6586 46.2185 56.4072 45.6622 56.4072H45.0977C44.1789 56.4072 43.7205 55.9808 43.7205 55.1293C43.7205 54.2342 44.3074 53.7852 45.484 53.7852C45.9955 53.7852 46.4708 53.8506 46.9109 53.9821V54.5393C46.4708 54.365 45.9955 54.2778 45.484 54.2778C44.6863 54.2778 44.2877 54.5619 44.2877 55.13C44.2877 55.632 44.557 55.8834 45.0977 55.8834H45.6622C46.5967 55.8834 47.0646 56.3091 47.0646 57.1621C47.0646 58.079 46.498 58.5381 45.365 58.5381C44.8325 58.5381 44.3346 58.4727 43.8742 58.3412Z" fill="#2EF2FF"/>
<path d="M50.8534 53.8186V54.3105H49.4735V58.5047H48.9056V54.3105H47.525V53.8186H50.8534Z" fill="#2EF2FF"/>
<path d="M51.2118 58.5054H50.6228L52.4843 53.8194H53.114L54.985 58.5054H54.3559L53.7887 57.0306H52.3374L52.4938 56.5395H53.5983L52.7794 54.4158L51.2118 58.5054Z" fill="#2EF2FF"/>
<path d="M58.0835 53.8186V54.3105H56.7036V58.5047H56.1364V54.3105H54.7558V53.8186H58.0835Z" fill="#2EF2FF"/>
<path d="M61.6262 53.8186V54.3105H59.3254V55.8834H61.5194V56.3753H59.3254V58.0136H61.6724V58.5054H58.7582V53.8194L61.6262 53.8186Z" fill="#2EF2FF"/>
<path d="M20.9311 60.5384L21.2643 61.2344L21.6037 60.5384H21.8873L21.3956 61.4793V61.9827H21.1344V61.4749L20.6447 60.5384H20.9311Z" fill="#2EF2FF"/>
<path d="M23.2692 61.9927C23.1747 61.9927 23.087 61.9724 23.0088 61.931C22.9306 61.8888 22.8625 61.8344 22.8054 61.7653C22.7497 61.6963 22.7061 61.6186 22.6755 61.5307C22.6449 61.4428 22.63 61.3519 22.63 61.2597C22.63 61.163 22.6463 61.0708 22.6782 60.9829C22.7109 60.895 22.7558 60.8172 22.8136 60.7489C22.8714 60.6814 22.9401 60.6276 23.0183 60.5869C23.0965 60.547 23.1829 60.5273 23.276 60.5273C23.3706 60.5273 23.4583 60.5484 23.5365 60.5913C23.6154 60.6341 23.6827 60.6908 23.7385 60.7591C23.7943 60.8281 23.8378 60.9073 23.8684 60.9952C23.899 61.0831 23.914 61.1725 23.914 61.2633C23.914 61.3599 23.8983 61.4522 23.8657 61.5387C23.833 61.6266 23.7888 61.7043 23.731 61.7711C23.6739 61.838 23.6059 61.8918 23.5277 61.9317C23.4488 61.9724 23.3624 61.9927 23.2692 61.9927ZM22.8952 61.2604C22.8952 61.3229 22.9034 61.3839 22.9204 61.442C22.9374 61.5002 22.9632 61.551 22.9945 61.5968C23.0271 61.6411 23.0666 61.6774 23.1142 61.7043C23.1604 61.7312 23.2135 61.745 23.2733 61.745C23.3345 61.745 23.3883 61.7312 23.4345 61.7029C23.4801 61.6752 23.5202 61.6382 23.5515 61.5924C23.5835 61.5467 23.6079 61.4943 23.6236 61.4362C23.6399 61.3788 23.6487 61.32 23.6487 61.2604C23.6487 61.1979 23.6392 61.1383 23.6222 61.0795C23.6039 61.0214 23.5794 60.9698 23.5467 60.9247C23.5141 60.8797 23.4753 60.8448 23.4284 60.8179C23.3821 60.7925 23.3298 60.778 23.272 60.778C23.2108 60.778 23.157 60.7925 23.1115 60.8209C23.0652 60.8477 23.0251 60.8848 22.9931 60.9298C22.9598 60.9756 22.936 61.0272 22.9197 61.0846C22.9027 61.1427 22.8952 61.2008 22.8952 61.2604Z" fill="#2EF2FF"/>
<path d="M25.449 61.745C25.5115 61.745 25.5632 61.7312 25.6054 61.7043C25.6476 61.6774 25.6822 61.6418 25.7081 61.5982C25.7339 61.5554 25.7523 61.5052 25.7632 61.4493C25.7741 61.3926 25.7795 61.3345 25.7795 61.2749V60.5382H26.0413V61.2749C26.0413 61.3745 26.0298 61.4675 26.008 61.5546C25.9856 61.6411 25.9509 61.7174 25.9033 61.782C25.8557 61.8474 25.7945 61.899 25.719 61.9368C25.6442 61.9753 25.5551 61.9942 25.4497 61.9942C25.3422 61.9942 25.2504 61.9738 25.1749 61.9339C25.0994 61.8939 25.0382 61.8416 24.9913 61.7748C24.9437 61.7094 24.9103 61.6331 24.8892 61.5466C24.8682 61.4602 24.8573 61.3694 24.8573 61.2757V60.539H25.1205V61.2757C25.1205 61.3367 25.1259 61.3955 25.1368 61.4515C25.1477 61.5081 25.1661 61.5575 25.1919 61.6019C25.2177 61.6447 25.2517 61.6796 25.2939 61.7065C25.3361 61.7312 25.3884 61.745 25.449 61.745Z" fill="#2EF2FF"/>
<path d="M27.0656 61.9826V60.5382H27.6634C27.7259 60.5382 27.7837 60.5528 27.8361 60.5804C27.8892 60.608 27.9347 60.645 27.9728 60.6901C28.0102 60.7359 28.0408 60.7867 28.0619 60.8448C28.083 60.9022 28.0946 60.9603 28.0946 61.0185C28.0946 61.1122 28.0728 61.1972 28.0286 61.2742C27.9851 61.3505 27.9252 61.4064 27.8504 61.4406L28.168 61.9833H27.8715L27.5872 61.4994H27.3281V61.9833L27.0656 61.9826ZM27.3288 61.2524H27.6579C27.6817 61.2524 27.7042 61.2459 27.7259 61.2342C27.747 61.2219 27.7647 61.2052 27.7804 61.1848C27.7946 61.1645 27.8069 61.1391 27.8164 61.11C27.8259 61.0817 27.83 61.0512 27.83 61.0185C27.83 60.985 27.8246 60.9538 27.8157 60.9247C27.8048 60.8964 27.7919 60.8717 27.7742 60.8499C27.7572 60.8296 27.7368 60.8129 27.7144 60.802C27.6926 60.7903 27.6709 60.7853 27.647 60.7853H27.3288V61.2524Z" fill="#2EF2FF"/>
<path d="M31.2869 60.7845H30.8564V61.9818H30.5932V60.7845H30.16V60.5375H31.2863V60.7845H31.2869Z" fill="#2EF2FF"/>
<path d="M31.9555 61.9826L32.4887 60.5382H32.7022L33.2334 61.9826H32.9559L32.8321 61.6229H32.3581L32.2336 61.9826H31.9555ZM32.5955 60.8412L32.4016 61.4246H32.7845L32.5955 60.8412Z" fill="#2EF2FF"/>
<path d="M35.0465 61.8198C34.9432 61.9353 34.8228 61.9927 34.6868 61.9927C34.6004 61.9927 34.5195 61.9724 34.4433 61.9317C34.3671 61.891 34.3005 61.8358 34.2447 61.7675C34.1876 61.6992 34.144 61.62 34.1114 61.5307C34.0788 61.4413 34.0631 61.3476 34.0631 61.2517C34.0631 61.1529 34.0788 61.0592 34.1114 60.9712C34.144 60.8848 34.1889 60.8078 34.2461 60.7417C34.3045 60.6763 34.3726 60.624 34.4501 60.5855C34.5283 60.5462 34.6126 60.5273 34.7044 60.5273C34.8282 60.5273 34.933 60.5557 35.0207 60.6123C35.1084 60.669 35.1751 60.7468 35.2186 60.8419L35.0227 60.9967C34.9901 60.9247 34.9445 60.8703 34.8867 60.8325C34.8289 60.794 34.765 60.7758 34.6956 60.7758C34.6398 60.7758 34.5895 60.7889 34.5439 60.8143C34.4991 60.8397 34.4603 60.8753 34.4283 60.9204C34.3964 60.9647 34.3719 61.017 34.3542 61.0751C34.3372 61.1333 34.3277 61.1943 34.3277 61.2597C34.3277 61.328 34.3372 61.3919 34.3569 61.45C34.3753 61.5096 34.4018 61.5605 34.4365 61.604C34.4712 61.6476 34.5106 61.6811 34.5575 61.7072C34.6038 61.7326 34.6548 61.745 34.7106 61.745C34.8357 61.745 34.9486 61.6789 35.0479 61.5481V61.4464H34.7759V61.2408H35.2655V61.9826H35.0486V61.8198H35.0465Z" fill="#2EF2FF"/>
<path d="M36.2523 61.9826V60.5382H36.5156V61.737H37.2052V61.9826H36.2523Z" fill="#2EF2FF"/>
<path d="M38.1362 61.9826V60.5404H38.3994V61.9826H38.1362Z" fill="#2EF2FF"/>
<path d="M39.7052 61.057V61.9818H39.442V60.5375H39.646L40.3506 61.4856V60.5397H40.6138V61.9818H40.401L39.7052 61.057Z" fill="#2EF2FF"/>
<path d="M42.5963 61.737V61.9826H41.6571V60.5382H42.5786V60.7853H41.9196V61.1333H42.4895V61.3607H41.9196V61.7377L42.5963 61.737Z" fill="#2EF2FF"/>
<path d="M45.5949 60.9168C45.586 60.9066 45.5697 60.8942 45.5466 60.8782C45.5235 60.8608 45.4942 60.8456 45.4609 60.8303C45.4276 60.815 45.3902 60.802 45.3514 60.7903C45.312 60.7787 45.2725 60.7744 45.231 60.7744C45.1596 60.7744 45.1045 60.7889 45.0692 60.8172C45.0338 60.8463 45.0161 60.8862 45.0161 60.9371C45.0161 60.9669 45.0229 60.9923 45.0358 61.0119C45.0494 61.0315 45.0692 61.049 45.0943 61.0635C45.1195 61.0788 45.1515 61.0918 45.1909 61.1049C45.2297 61.1173 45.2739 61.1296 45.3249 61.1434C45.3908 61.1623 45.4507 61.1834 45.5051 61.2045C45.5588 61.2255 45.6044 61.2531 45.6418 61.2858C45.6799 61.3178 45.7085 61.3578 45.7289 61.4028C45.7493 61.4486 45.7595 61.5038 45.7595 61.5699C45.7595 61.6476 45.7459 61.713 45.718 61.7682C45.6908 61.8235 45.654 61.8678 45.6085 61.9019C45.5636 61.9361 45.5099 61.96 45.4493 61.976C45.3881 61.9913 45.3242 62 45.2582 62C45.1576 62 45.0562 61.9833 44.9583 61.9506C44.859 61.9179 44.7699 61.8729 44.691 61.8133L44.8073 61.5706C44.8189 61.5837 44.8393 61.599 44.8692 61.6186C44.8991 61.6382 44.9345 61.6578 44.9753 61.6774C45.0154 61.6963 45.0603 61.7137 45.11 61.7268C45.1596 61.7399 45.2099 61.7472 45.2623 61.7472C45.4072 61.7472 45.4793 61.6978 45.4793 61.5982C45.4793 61.5655 45.4711 61.5387 45.4548 61.5176C45.4385 61.4958 45.4146 61.4762 45.384 61.4609C45.3534 61.4442 45.316 61.4297 45.2739 61.4151C45.2303 61.4021 45.1821 61.3875 45.129 61.3723C45.0637 61.3541 45.0079 61.3323 44.9603 61.3098C44.9127 61.288 44.8726 61.2619 44.8406 61.2321C44.8087 61.2023 44.7856 61.1667 44.7699 61.126C44.7543 61.0853 44.7461 61.0374 44.7461 60.9821C44.7461 60.9088 44.759 60.8434 44.7842 60.786C44.8094 60.7293 44.8454 60.6821 44.8903 60.6443C44.9352 60.6058 44.9875 60.5775 45.0467 60.5579C45.1066 60.5382 45.1705 60.5281 45.2392 60.5281C45.3351 60.5281 45.4221 60.5433 45.5024 60.576C45.582 60.6073 45.652 60.6458 45.7118 60.6879L45.5949 60.9168Z" fill="#2EF2FF"/>
<path d="M46.7198 61.9826V60.5382H47.2938C47.3563 60.5382 47.4135 60.5528 47.4665 60.5804C47.5189 60.608 47.5644 60.645 47.6018 60.6901C47.6406 60.7359 47.6705 60.7867 47.6923 60.8448C47.7134 60.9022 47.7243 60.9603 47.7243 61.0185C47.7243 61.0795 47.7134 61.1391 47.6937 61.1965C47.6739 61.2546 47.6447 61.3054 47.608 61.3498C47.5712 61.3955 47.527 61.4304 47.4747 61.4573C47.423 61.4849 47.3659 61.4987 47.3033 61.4987H46.983V61.9826H46.7198ZM46.983 61.2524H47.2883C47.3359 61.2524 47.376 61.2321 47.4094 61.1892C47.4413 61.1471 47.457 61.0897 47.457 61.0185C47.457 60.9821 47.4522 60.9487 47.4427 60.9197C47.4318 60.8906 47.4189 60.8659 47.4026 60.8456C47.3856 60.8245 47.3665 60.8092 47.3441 60.7998C47.3216 60.7889 47.2992 60.7845 47.2761 60.7845H46.9823L46.983 61.2524Z" fill="#2EF2FF"/>
<path d="M48.4309 61.9826L48.9641 60.5382H49.177L49.7081 61.9826H49.4306L49.3069 61.6229H48.8328L48.7084 61.9826H48.4309ZM49.0709 60.8412L48.877 61.4246H49.2599L49.0709 60.8412Z" fill="#2EF2FF"/>
<path d="M50.5351 61.2502C50.5351 61.1623 50.5487 61.0751 50.578 60.9894C50.6072 60.9029 50.6494 60.8259 50.7058 60.7584C50.7602 60.6901 50.8282 60.6356 50.9085 60.5942C50.9887 60.5513 51.0799 60.531 51.1826 60.531C51.3036 60.531 51.407 60.56 51.4961 60.6181C51.5838 60.6763 51.6491 60.7533 51.6913 60.8463L51.4893 60.9938C51.4736 60.9538 51.4539 60.9189 51.4294 60.8913C51.4056 60.863 51.3791 60.8419 51.3512 60.8245C51.322 60.8092 51.2927 60.7969 51.2621 60.7889C51.2315 60.7816 51.2023 60.7773 51.1744 60.7773C51.1118 60.7773 51.0574 60.7925 51.0112 60.8209C50.9643 60.8492 50.9248 60.8862 50.8942 60.932C50.8622 60.9778 50.8391 61.0286 50.8228 61.086C50.8078 61.1434 50.7997 61.2015 50.7997 61.2582C50.7997 61.3222 50.8085 61.3832 50.8269 61.442C50.8446 61.5009 50.8711 61.5532 50.9044 61.5975C50.9384 61.6433 50.9785 61.6781 51.0255 61.705C51.0731 61.7319 51.1247 61.7464 51.1805 61.7464C51.2098 61.7464 51.2397 61.7421 51.2703 61.7334C51.3009 61.7254 51.3301 61.713 51.3587 61.6949C51.3873 61.6774 51.4138 61.6549 51.4376 61.6266C51.4614 61.599 51.4811 61.5655 51.4968 61.5256L51.7117 61.6578C51.6913 61.7123 51.662 61.7602 51.6233 61.8009C51.5845 61.8431 51.5403 61.8779 51.4906 61.9063C51.4417 61.9346 51.39 61.9564 51.3349 61.9717C51.2798 61.9869 51.2261 61.9942 51.173 61.9942C51.0785 61.9942 50.9921 61.9724 50.9146 61.9288C50.8371 61.8852 50.7691 61.8285 50.7126 61.7588C50.6562 61.689 50.6126 61.6099 50.5814 61.5212C50.5507 61.4333 50.5351 61.3425 50.5351 61.2502Z" fill="#2EF2FF"/>
<path d="M53.5922 61.737V61.9826H52.6536V60.5382H53.5752V60.7853H52.9161V61.1333H53.4861V61.3607H52.9161V61.7377L53.5922 61.737Z" fill="#2EF2FF"/>
<path d="M56.9199 60.5382V61.9826H56.6587V61.3665H56.046V61.9826H55.7828V60.5382H56.046V61.1231H56.6587V60.5382H56.9199Z" fill="#2EF2FF"/>
<path d="M58.9024 61.737V61.9826H57.9632V60.5382H58.8854V60.7853H58.2257V61.1333H58.7949V61.3607H58.2257V61.7377L58.9024 61.737Z" fill="#2EF2FF"/>
<path d="M59.8756 61.9826V60.5382H60.4741C60.5367 60.5382 60.5945 60.5528 60.6468 60.5804C60.6992 60.608 60.7441 60.645 60.7828 60.6901C60.8209 60.7359 60.8509 60.7867 60.8719 60.8448C60.8937 60.9022 60.9053 60.9603 60.9053 61.0185C60.9053 61.1122 60.8828 61.1972 60.8386 61.2742C60.7951 61.3505 60.7359 61.4064 60.6604 61.4406L60.9787 61.9833H60.6815L60.3972 61.4994H60.1381V61.9833L59.8756 61.9826ZM60.1381 61.2524H60.4673C60.4918 61.2524 60.5142 61.2459 60.5353 61.2342C60.5564 61.2219 60.5747 61.2052 60.5897 61.1848C60.6047 61.1645 60.6169 61.1391 60.6257 61.11C60.6353 61.0817 60.6393 61.0512 60.6393 61.0185C60.6393 60.985 60.6346 60.9538 60.6251 60.9247C60.6142 60.8964 60.6013 60.8717 60.5836 60.8499C60.5666 60.8296 60.5462 60.8129 60.5244 60.802C60.5027 60.7903 60.4802 60.7853 60.4571 60.7853H60.1381V61.2524Z" fill="#2EF2FF"/>
<path d="M62.8599 61.737V61.9826H61.9207V60.5382H62.8435V60.7853H62.1838V61.1333H62.7538V61.3607H62.1838V61.7377L62.8599 61.737Z" fill="#2EF2FF"/>
<path d="M57.8006 45.4883V27.1153C50.8969 20.5308 46.4212 16.2618 43.3818 13.3637H43.2499V45.4883H57.8006Z" fill="#3C52D9"/>
<path d="M43.3818 0H43.2499V8.72627C46.2913 11.6251 50.7942 15.9203 57.8013 22.6029V13.7516C50.8962 7.16715 46.4205 2.89883 43.3818 0Z" fill="#2EF2FF"/>
<path d="M39.5957 45.4883V22.3871H39.4638C36.4237 25.2852 31.9494 29.5542 25.045 36.1387V45.4883H39.5957Z" fill="#3C52D9"/>
<path d="M25.045 22.775V31.627C32.0521 24.9444 36.555 20.6492 39.5957 17.7497V9.02342H39.4638C36.4237 11.9215 31.9494 16.1898 25.045 22.775Z" fill="#2EF2FF"/>
<path d="M79 54.4362C79 54.4362 77.8513 53.9588 75.862 53.0652C74.8793 52.5734 73.6333 52.1883 72.2459 51.6347C70.868 51.06 69.2542 50.6016 67.5172 50.04C67.0833 49.9027 66.6412 49.7588 66.189 49.6164C65.7299 49.5024 65.2633 49.3868 64.7886 49.2684C63.8419 49.0243 62.8646 48.7715 61.8595 48.5121C60.8529 48.268 59.8028 48.106 58.7405 47.8902C57.6748 47.6948 56.5948 47.439 55.4774 47.3228C54.3661 47.168 53.2358 47.0082 52.0919 46.8491C50.9466 46.7183 49.7816 46.6587 48.6104 46.5469C48.0262 46.4975 47.4379 46.4459 46.8483 46.395C46.2587 46.3652 45.6656 46.3652 45.0719 46.3442C43.8844 46.31 42.6929 46.2759 41.5 46.2417C40.3037 46.2766 39.1074 46.31 37.9159 46.3456C37.3153 46.3667 36.7114 46.3696 36.1191 46.4001C35.5335 46.4502 34.95 46.5004 34.3698 46.5505C33.2055 46.6624 32.0514 46.7241 30.9081 46.8527C29.7649 47.0133 28.6359 47.1709 27.524 47.3271C26.4059 47.4419 25.3266 47.6999 24.2622 47.896C23.1985 48.1103 22.1498 48.2731 21.1412 48.5165C20.136 48.7758 19.1587 49.0301 18.212 49.2742C17.738 49.3919 17.2715 49.5074 16.8124 49.6222C16.3608 49.7654 15.9181 49.9063 15.4842 50.0451C13.7479 50.6059 12.1347 51.0651 10.7507 51.6412C9.3585 52.1948 8.10984 52.5835 7.13458 53.0689C5.15413 53.9574 4 54.4369 4 54.4369C4 54.4369 5.05212 53.7118 6.93327 52.4927C7.86025 51.8454 9.05314 51.2424 10.4099 50.5093C10.7513 50.3277 11.1016 50.1388 11.4641 49.9463C11.6457 49.8496 11.8293 49.7516 12.015 49.6513C12.204 49.5663 12.3979 49.4791 12.5924 49.3905C13.3786 49.0476 14.2028 48.6879 15.0645 48.3109C15.4964 48.1234 15.9371 47.9331 16.386 47.7376C16.8423 47.5727 17.3068 47.4049 17.7802 47.2341C18.7303 46.9072 19.7137 46.5687 20.725 46.2207C21.7411 45.8959 22.7993 45.646 23.8759 45.3437C24.9525 45.0488 26.0556 44.7523 27.1907 44.5634C28.3251 44.3542 29.4779 44.1399 30.6449 43.9248C31.8188 43.7403 33.0205 43.6371 34.2277 43.5005C34.8309 43.4344 35.4376 43.3683 36.0456 43.3044C36.6488 43.255 37.2473 43.2492 37.8479 43.223C39.0618 43.1794 40.2813 43.1358 41.5 43.093C42.7235 43.1373 43.9463 43.1809 45.1651 43.2252C45.7737 43.2492 46.3831 43.2593 46.9877 43.3087C47.591 43.3741 48.1942 43.4388 48.7934 43.5042C49.9924 43.6408 51.1846 43.7461 52.3557 43.9277C53.5221 44.1435 54.6749 44.3578 55.8093 44.5678C56.9444 44.7553 58.0461 45.0546 59.1241 45.3495C60.2 45.6503 61.2589 45.8995 62.275 46.225C63.2843 46.573 64.2684 46.9116 65.2191 47.2392C65.6925 47.4085 66.1577 47.5778 66.614 47.742C67.0629 47.9367 67.5043 48.1278 67.9348 48.3152C68.7965 48.6916 69.6208 49.0519 70.4049 49.3948C70.6015 49.4827 70.7946 49.5699 70.985 49.6564C71.17 49.7566 71.355 49.854 71.5366 49.9506C71.8998 50.1453 72.252 50.3335 72.5935 50.5151C73.955 51.2496 75.1506 51.8563 76.0695 52.4978C77.9418 53.7096 79 54.4362 79 54.4362Z" fill="#2EF2FF"/>
</g>
<defs>
<filter id="filter0_d_6_98" x="87.4017" y="20.3633" width="84.7523" height="35.6364" filterUnits="userSpaceOnUse" color-interpolation-filters="sRGB">
<feFlood flood-opacity="0" result="BackgroundImageFix"/>
<feColorMatrix in="SourceAlpha" type="matrix" values="0 0 0 0 0 0 0 0 0 0 0 0 0 0 0 0 0 0 127 0" result="hardAlpha"/>
<feOffset dy="4"/>
<feGaussianBlur stdDeviation="2"/>
<feComposite in2="hardAlpha" operator="out"/>
<feColorMatrix type="matrix" values="0 0 0 0 0 0 0 0 0 0 0 0 0 0 0 0 0 0 0.25 0"/>
<feBlend mode="normal" in2="BackgroundImageFix" result="effect1_dropShadow_6_98"/>
<feBlend mode="normal" in="SourceGraphic" in2="effect1_dropShadow_6_98" result="shape"/>
</filter>
<filter id="filter1_d_6_98" x="0" y="0" width="83" height="70" filterUnits="userSpaceOnUse" color-interpolation-filters="sRGB">
<feFlood flood-opacity="0" result="BackgroundImageFix"/>
<feColorMatrix in="SourceAlpha" type="matrix" values="0 0 0 0 0 0 0 0 0 0 0 0 0 0 0 0 0 0 127 0" result="hardAlpha"/>
<feOffset dy="4"/>
<feGaussianBlur stdDeviation="2"/>
<feComposite in2="hardAlpha" operator="out"/>
<feColorMatrix type="matrix" values="0 0 0 0 0 0 0 0 0 0 0 0 0 0 0 0 0 0 0.25 0"/>
<feBlend mode="normal" in2="BackgroundImageFix" result="effect1_dropShadow_6_98"/>
<feBlend mode="normal" in="SourceGraphic" in2="effect1_dropShadow_6_98" result="shape"/>
</filter>
</defs>
</svg>
